name rise35.5848peak51.9257fall54.8793.mot
datacolumns 19
datarows 35
range 9.07662900000000 9.13329000000000
endheader
time	ground_force1_vx	ground_force1_vy	ground_force1_vz	ground_force1_px	ground_force1_py	ground_force1_pz	ground_force2_vx	ground_force2_vy	ground_force2_vz	ground_force2_px	ground_force2_py	ground_force2_pz	ground_torque1_x	ground_torque1_y	ground_torque1_z	ground_torque2_x	ground_torque2_y	ground_torque2_z	
9.07662900000000	-37.90235500000000	805.60248600000000	55.44630900000000	0.08595400000000	0.00000000000000	0.11386500000000	0.00000000000000	0.00000000000000	0.00000000000000	0.00000000000000	0.00000000000000	0.00000000000000	0.00000000000000	18.06744900000000	0.00000000000000	0.00000000000000	0.00000000000000	0.00000000000000	
9.07829400000000	-38.45534600000000	804.67427099999998	55.44426100000000	0.08512900000000	0.00000000000000	0.11379000000000	-1.11263000000000	3.44885100000000	0.86487900000000	0.00000000000000	0.00000000000000	0.00000000000000	0.00000000000000	18.05907100000000	0.00000000000000	0.00000000000000	0.24422700000000	0.00000000000000	
9.07995900000000	-39.02734200000000	803.63715600000000	55.42144100000000	0.08430600000000	0.00000000000000	0.11371100000000	-1.81677500000000	6.71215200000000	1.51597100000000	0.00000000000000	0.00000000000000	0.00000000000000	0.00000000000000	18.05323700000000	0.00000000000000	0.00000000000000	0.43724500000000	0.00000000000000	
9.08162700000000	-39.61853000000000	802.48807299999999	55.37713100000000	0.08348600000000	0.00000000000000	0.11363000000000	-2.62039400000000	10.66417100000000	2.28030700000000	0.00000000000000	0.00000000000000	0.00000000000000	0.00000000000000	18.05003300000000	0.00000000000000	0.00000000000000	0.66545400000000	0.00000000000000	
9.08331900000000	-40.22902400000000	801.22393999999997	55.31064500000000	0.08266900000000	0.00000000000000	0.11354600000000	-3.50109300000000	15.26551300000000	3.14301200000000	0.00000000000000	0.00000000000000	0.00000000000000	0.00000000000000	18.04952800000000	0.00000000000000	0.00000000000000	0.92489800000000	0.00000000000000	
9.08495600000000	-40.85886500000000	799.84166200000004	55.22133100000000	0.08185400000000	0.00000000000000	0.11345900000000	-4.43027100000000	20.44669700000000	4.08325700000000	0.00000000000000	0.00000000000000	0.00000000000000	0.00000000000000	18.05177700000000	0.00000000000000	0.00000000000000	1.20985100000000	0.00000000000000	
9.08662900000000	-41.50801800000000	798.33814099999995	55.10857000000000	0.08104200000000	0.00000000000000	0.11336900000000	-5.37496900000000	26.11342500000000	5.07565000000000	0.28779500000000	0.00000000000000	-0.05996600000000	0.00000000000000	18.05681900000000	0.00000000000000	0.00000000000000	2.65162900000000	0.00000000000000	
9.08829500000000	-42.17636600000000	796.71027100000003	54.97178000000000	0.08023200000000	0.00000000000000	0.11327700000000	-6.30025400000000	32.15453900000000	6.09214100000000	0.29382600000000	0.00000000000000	-0.06037300000000	0.00000000000000	18.06467700000000	0.00000000000000	0.00000000000000	3.23664800000000	0.00000000000000	
9.08995700000000	-42.86371000000000	794.95495000000005	54.81041900000000	0.07942500000000	0.00000000000000	0.11318100000000	-7.17182000000000	38.45160500000000	7.10419200000000	0.29917800000000	0.00000000000000	-0.06075500000000	0.00000000000000	18.07535800000000	0.00000000000000	0.00000000000000	3.83273200000000	0.00000000000000	
9.09163000000000	-43.56976300000000	793.06907799999999	54.62398500000000	0.07862100000000	0.00000000000000	0.11308200000000	-7.95847100000000	44.88875100000000	8.08491900000000	0.30395700000000	0.00000000000000	-0.06111600000000	0.00000000000000	18.08885000000000	0.00000000000000	0.00000000000000	4.42467000000000	0.00000000000000	
9.09329100000000	-44.29415200000000	791.04956700000002	54.41202100000000	0.07782000000000	0.00000000000000	0.11298000000000	-8.63414400000000	51.36145800000000	9.01091400000000	0.30824800000000	0.00000000000000	-0.06145800000000	0.00000000000000	18.10512200000000	0.00000000000000	0.00000000000000	4.99876800000000	0.00000000000000	
9.09496200000000	-45.03641300000000	788.89334399999996	54.17411500000000	0.07702100000000	0.00000000000000	0.11287500000000	-9.17929500000000	57.78337400000000	9.86357600000000	0.31212100000000	0.00000000000000	-0.06178600000000	0.00000000000000	18.12412600000000	0.00000000000000	0.00000000000000	5.54369200000000	0.00000000000000	
9.09662400000000	-45.79598700000000	786.59735599999999	53.90990200000000	0.07622600000000	0.00000000000000	0.11276700000000	-9.58156300000000	64.09065400000000	10.62986000000000	0.31563100000000	0.00000000000000	-0.06210200000000	0.00000000000000	18.14579700000000	0.00000000000000	0.00000000000000	6.05099000000000	0.00000000000000	
9.09830400000000	-46.57222300000000	784.15857700000004	53.61906600000000	0.07543300000000	0.00000000000000	0.11265600000000	-9.83575000000000	70.24378600000000	11.30246000000000	0.31882600000000	0.00000000000000	-0.06240700000000	0.00000000000000	18.17004600000000	0.00000000000000	0.00000000000000	6.51530400000000	0.00000000000000	
9.09995800000000	-47.36437200000000	781.57401600000003	53.30134100000000	0.07464400000000	0.00000000000000	0.11254200000000	-9.94321800000000	76.22710499999999	11.87948300000000	0.32174400000000	0.00000000000000	-0.06270300000000	0.00000000000000	18.19676700000000	0.00000000000000	0.00000000000000	6.93428600000000	0.00000000000000	
9.10162900000000	-48.17159200000000	778.84071800000004	52.95651500000000	0.07385800000000	0.00000000000000	0.11242500000000	-9.91085100000000	82.04643400000000	12.36374200000000	0.32441900000000	0.00000000000000	-0.06299200000000	0.00000000000000	18.22583600000000	0.00000000000000	0.00000000000000	7.30828200000000	0.00000000000000	
9.10330800000000	-48.99293900000000	775.95577600000001	52.58442900000000	0.07307500000000	0.00000000000000	0.11230400000000	-9.74974300000000	87.72536200000000	12.76177500000000	0.32687900000000	0.00000000000000	-0.06327400000000	0.00000000000000	18.25710700000000	0.00000000000000	0.00000000000000	7.63984400000000	0.00000000000000	
9.10495800000000	-49.82737600000000	772.91633800000000	52.18497800000000	0.07229500000000	0.00000000000000	0.11218100000000	-9.47377000000000	93.30071000000000	13.08274000000000	0.32914600000000	0.00000000000000	-0.06355000000000	0.00000000000000	18.29041300000000	0.00000000000000	0.00000000000000	7.93314900000000	0.00000000000000	
9.10662600000000	-50.67376400000000	769.71960999999999	51.75811600000000	0.07151800000000	0.00000000000000	0.11205400000000	-9.09817500000000	98.81769700000000	13.33727400000000	0.33124100000000	0.00000000000000	-0.06382200000000	0.00000000000000	18.32556900000000	0.00000000000000	0.00000000000000	8.19337800000000	0.00000000000000	
9.10829900000000	-51.53087000000000	766.36286800000005	51.30385200000000	0.07074500000000	0.00000000000000	0.11192500000000	-8.63829500000000	104.32525600000000	13.53643800000000	0.33318200000000	0.00000000000000	-0.06408900000000	0.00000000000000	18.36237000000000	0.00000000000000	0.00000000000000	8.42612700000000	0.00000000000000	
9.10996300000000	-52.39736300000000	762.84346200000005	50.82225400000000	0.06997600000000	0.00000000000000	0.11179200000000	-8.10849300000000	109.87184499999999	13.69080400000000	0.33498300000000	0.00000000000000	-0.06435300000000	0.00000000000000	18.40059100000000	0.00000000000000	0.00000000000000	8.63688300000000	0.00000000000000	
9.11162600000000	-53.27181700000000	759.15882699999997	50.31345000000000	0.06921000000000	0.00000000000000	0.11165600000000	-7.52134600000000	115.50200100000001	13.80973800000000	0.33665700000000	0.00000000000000	-0.06461400000000	0.00000000000000	18.43998700000000	0.00000000000000	0.00000000000000	8.83060400000000	0.00000000000000	
9.11329100000000	-54.15271300000000	755.30649300000005	49.77762900000000	0.06844700000000	0.00000000000000	0.11151700000000	-6.88711900000000	121.25376600000000	13.90089600000000	0.33821600000000	0.00000000000000	-0.06487100000000	0.00000000000000	18.48029500000000	0.00000000000000	0.00000000000000	9.01140400000000	0.00000000000000	
9.11495800000000	-55.03844100000000	751.28408700000000	49.21503800000000	0.06768900000000	0.00000000000000	0.11137500000000	-6.21349600000000	127.15703000000001	13.96993800000000	0.33966900000000	0.00000000000000	-0.06512700000000	0.00000000000000	18.52123300000000	0.00000000000000	0.00000000000000	9.18236800000000	0.00000000000000	
9.11662500000000	-55.92730000000000	747.08935099999997	48.62598700000000	0.06693300000000	0.00000000000000	0.11123000000000	-5.50556000000000	133.23276300000001	14.02044400000000	0.34102400000000	0.00000000000000	-0.06538000000000	0.00000000000000	18.56250100000000	0.00000000000000	0.00000000000000	9.34547100000000	0.00000000000000	
9.11830600000000	-56.81750500000000	742.72014400000000	48.01084600000000	0.06618200000000	0.00000000000000	0.11108200000000	-4.76596900000000	139.49300800000000	14.05399400000000	0.34228900000000	0.00000000000000	-0.06563200000000	0.00000000000000	18.60378200000000	0.00000000000000	0.00000000000000	9.50160200000000	0.00000000000000	
9.11996500000000	-57.70719000000000	738.17445899999996	47.37004600000000	0.06543400000000	0.00000000000000	0.11093100000000	-3.99528000000000	145.94152600000001	14.07038500000000	0.34347000000000	0.00000000000000	-0.06588100000000	0.00000000000000	18.64474200000000	0.00000000000000	0.00000000000000	9.65066000000000	0.00000000000000	
9.12164800000000	-58.59440600000000	733.45043099999998	46.70407900000000	0.06469000000000	0.00000000000000	0.11077700000000	-3.19237800000000	152.57490300000001	14.06794400000000	0.34457400000000	0.00000000000000	-0.06613000000000	0.00000000000000	18.68503200000000	0.00000000000000	0.00000000000000	9.79171300000000	0.00000000000000	
9.12330600000000	-59.47713400000000	728.54634899999996	46.01349900000000	0.06395000000000	0.00000000000000	0.11062000000000	-2.35494200000000	159.38395299999999	14.04389100000000	0.34560400000000	0.00000000000000	-0.06637700000000	0.00000000000000	18.72428700000000	0.00000000000000	0.00000000000000	9.92318600000000	0.00000000000000	
9.12496100000000	-60.35328300000000	723.46066599999995	45.29891500000000	0.06321400000000	0.00000000000000	0.11046000000000	-1.47992800000000	166.35527600000000	13.99471600000000	0.34656500000000	0.00000000000000	-0.06662300000000	0.00000000000000	18.76213000000000	0.00000000000000	0.00000000000000	10.04307100000000	0.00000000000000	
9.12662800000000	-61.22069800000000	718.19201899999996	44.56100000000000	0.06248100000000	0.00000000000000	0.11029700000000	-0.56400800000000	173.47280100000000	13.91654300000000	0.34746200000000	0.00000000000000	-0.06686800000000	0.00000000000000	18.79816900000000	0.00000000000000	0.00000000000000	10.14912100000000	0.00000000000000	
9.12830200000000	-62.07716300000000	712.73923200000002	43.80048200000000	0.06175100000000	0.00000000000000	0.11013200000000	0.39603700000000	180.71922000000001	13.80546200000000	0.34829600000000	0.00000000000000	-0.06711300000000	0.00000000000000	18.83200400000000	0.00000000000000	0.00000000000000	10.23904000000000	0.00000000000000	
9.12996300000000	-62.92041200000000	707.10134000000005	43.01814300000000	0.06102500000000	0.00000000000000	0.10996300000000	1.40300800000000	188.07722699999999	13.65779600000000	0.34907100000000	0.00000000000000	-0.06735600000000	0.00000000000000	18.86322200000000	0.00000000000000	0.00000000000000	10.31063300000000	0.00000000000000	
9.13163900000000	-63.74812900000000	701.27759300000002	42.21482400000000	0.06030300000000	0.00000000000000	0.10979200000000	2.45906500000000	195.53050700000000	13.47031100000000	0.34978900000000	0.00000000000000	-0.06759900000000	0.00000000000000	18.89140200000000	0.00000000000000	0.00000000000000	10.36193000000000	0.00000000000000	
9.13329000000000	-64.55795700000000	695.26747499999999	41.39141500000000	0.05958300000000	0.00000000000000	0.10961900000000	3.56558100000000	203.06444600000000	13.24035400000000	0.35045200000000	0.00000000000000	-0.06784100000000	0.00000000000000	18.91611700000000	0.00000000000000	0.00000000000000	10.39127200000000	0.00000000000000	
